<svg width="20" height="16" viewBox="0 0 20 16" fill="none" xmlns="http://www.w3.org/2000/svg">
<path d="M19.3971 1.42216C19.2932 2.18133 19.0738 3.01924 18.8891 3.8684C18.1213 7.41686 17.342 10.9597 16.5684 14.5082C16.3375 15.5823 15.7025 15.8241 14.7962 15.1717C13.5146 14.2495 12.2331 13.3328 10.9573 12.405C10.7668 12.2644 10.6629 12.2812 10.4954 12.4443C9.86621 13.0629 9.21388 13.6534 8.5731 14.2607C8.52692 14.3057 8.48074 14.3563 8.42301 14.3901C8.24405 14.5082 8.03046 14.6656 7.84573 14.5644C7.71295 14.4913 7.81109 14.2439 7.82264 14.0752C7.90346 12.9392 7.99005 11.8032 8.0651 10.6617C8.07664 10.4648 8.13437 10.3186 8.28446 10.1837C10.6975 8.06919 13.1048 5.94912 15.512 3.82904C15.7025 3.66033 15.8872 3.49162 16.0777 3.31729C16.1239 3.2723 16.1817 3.21607 16.1528 3.14859C16.1239 3.06986 16.0431 3.05861 15.9565 3.05299C15.7429 3.04174 15.5697 3.15421 15.4023 3.25543C13.3934 4.48699 11.3902 5.71293 9.38707 6.94448C8.22673 7.65305 7.07217 8.36724 5.91184 9.08143C5.76175 9.17704 5.62897 9.19953 5.44424 9.14329C4.13382 8.7384 2.81762 8.34475 1.50719 7.94548C1.20123 7.84988 0.826 7.75428 0.802909 7.38874C0.774045 7.00634 1.13196 6.83764 1.43792 6.71392C2.7368 6.2078 4.04145 5.71855 5.34611 5.2293C9.54293 3.65471 13.7398 2.08011 17.9308 0.505516C18.0059 0.477399 18.0751 0.443658 18.1502 0.421163C18.918 0.151233 19.4317 0.52801 19.3971 1.42216Z" fill="#378AD7"/>
</svg>
