<svg width="67" height="66" viewBox="0 0 67 66" fill="none" xmlns="http://www.w3.org/2000/svg">
<path d="M67 31.7992C67 49.2863 52.2756 63.4621 34.109 63.4621C28.3417 63.4621 22.9237 62.0321 18.2099 59.5224L0 65.1362L5.93694 48.1481C2.94204 43.3771 1.21717 37.7813 1.21717 31.7992C1.21717 14.312 15.943 0.13623 34.109 0.13623C52.2771 0.13623 67 14.312 67 31.7992ZM34.109 5.17879C18.8598 5.17879 6.45582 17.1207 6.45582 31.7992C6.45582 37.6239 8.41297 43.0182 11.7235 47.4064L8.26855 57.2929L18.8955 54.0162C23.2617 56.7975 28.4921 58.4196 34.1097 58.4196C49.3567 58.4196 61.7628 46.4791 61.7628 31.8006C61.7628 17.1222 49.3574 5.17879 34.109 5.17879ZM50.7183 39.0915C50.515 38.7686 49.9783 38.5736 49.1728 38.1858C48.3658 37.798 44.4009 35.9195 43.6639 35.6616C42.9247 35.4031 42.3857 35.2731 41.8489 36.0495C41.3122 36.8266 39.7667 38.5736 39.2955 39.0915C38.825 39.6107 38.3553 39.6757 37.5483 39.2872C36.7428 38.8993 34.1454 38.0789 31.0657 35.4356C28.6693 33.3787 27.0509 30.8393 26.5804 30.0615C26.1106 29.2851 26.5313 28.8655 26.934 28.4791C27.2973 28.131 27.741 27.5727 28.1437 27.1199C28.548 26.6663 28.682 26.3435 28.9492 25.825C29.2194 25.3071 29.0847 24.8543 28.8822 24.465C28.6812 24.0772 27.0673 20.2581 26.3958 18.7038C25.7243 17.1511 25.0535 17.4096 24.5823 17.4096C24.1126 17.4096 23.5743 17.3446 23.0368 17.3446C22.4993 17.3446 21.6254 17.5389 20.8861 18.3153C20.1476 19.0924 18.0654 20.9702 18.0654 24.7886C18.0654 28.6077 20.9531 32.2975 21.3574 32.8146C21.7601 33.3317 26.9333 41.4235 35.1296 44.5312C43.3267 47.6375 43.3267 46.6011 44.8051 46.4711C46.2821 46.3418 49.574 44.5941 50.2485 42.7827C50.9185 40.9685 50.9185 39.415 50.7183 39.0915Z" fill="#378AD7"/>
</svg>
