<svg width="22" height="22" viewBox="0 0 22 22" fill="none" xmlns="http://www.w3.org/2000/svg">
<path d="M11.1521 20.9937C9.56455 21.005 8.05785 20.6732 6.62042 20.0153C6.45301 19.9365 6.29714 19.9309 6.10664 19.9759C4.4383 20.3695 2.76996 20.7463 1.10162 21.1231C0.599386 21.2356 0.374246 21.0275 0.478156 20.527C0.668659 19.6385 0.859164 18.75 1.04967 17.8671C1.21708 17.0966 1.37872 16.3262 1.54035 15.5558C1.58076 15.3758 1.5519 15.2184 1.47108 15.0497C-0.566721 10.8264 0.408886 5.9395 3.95916 2.79593C5.73141 1.22696 7.83848 0.349687 10.2342 0.130368C15.372 -0.330763 20.2269 2.91965 21.5547 7.90774C23.1076 13.7394 19.3206 19.6104 13.2938 20.7913C12.5895 20.9263 11.8737 20.9994 11.1521 20.9937ZM3.3357 18.2776C4.34017 18.047 5.28113 17.8446 6.21055 17.6084C6.5396 17.524 6.80515 17.5634 7.09956 17.7152C9.01036 18.6937 11.0251 19.0143 13.1379 18.4969C17.6927 17.3778 20.3712 13.1601 19.3495 8.68379C18.4547 4.75293 14.61 1.88492 10.1592 2.39666C7.68839 2.68346 5.70255 3.85316 4.26512 5.83827C3.01242 7.56471 2.55637 9.49921 2.81614 11.6024C2.95469 12.7046 3.34147 13.7225 3.88411 14.6897C3.98802 14.8753 4.02266 15.0497 3.97648 15.2521C3.91875 15.4995 3.8668 15.7414 3.81484 15.9888C3.65898 16.7367 3.50311 17.479 3.3357 18.2776Z" fill="#378AD7"/>
<path d="M13.9806 15.6352C12.8029 15.6071 11.7292 15.236 10.7478 14.6286C8.92935 13.4983 7.36492 12.1149 6.33159 10.2366C5.87554 9.39871 5.61576 8.50456 5.80626 7.54856C5.97945 6.68815 6.5625 6.09206 7.26101 5.60281C7.61315 5.35537 8.10384 5.50721 8.29434 5.89523C8.62339 6.56444 8.92357 7.24489 9.22376 7.93096C9.32767 8.17277 9.27572 8.40334 9.11985 8.61703C8.98707 8.79699 8.84853 8.96569 8.71575 9.14565C8.44443 9.50555 8.43289 9.8036 8.68689 10.1691C9.02171 10.6415 9.43158 11.052 9.86454 11.4401C10.4938 12.0024 11.1403 12.5535 11.8908 12.964C12.4508 13.2677 12.7279 13.2283 13.1781 12.7897C13.3051 12.666 13.4321 12.5366 13.5649 12.4186C13.767 12.233 14.0152 12.1655 14.2865 12.2386C14.9677 12.4242 15.6431 12.6098 16.3185 12.8066C16.9016 12.9753 17.1152 13.5095 16.7804 13.9988C16.3012 14.7017 15.7643 15.3484 14.8522 15.5452C14.5636 15.6015 14.275 15.6465 13.9806 15.6352Z" fill="#378AD7"/>
</svg>
