<svg width="86" height="68" viewBox="0 0 86 68" fill="none" xmlns="http://www.w3.org/2000/svg">
<g clip-path="url(#clip0_141_398)">
<path d="M58.1748 11.5472L57.5227 10.9056C57.5071 10.8939 57.4915 10.8765 57.4759 10.862C55.8755 9.38412 54.2875 7.89462 52.6902 6.41674C52.4874 6.22801 52.3969 6.04509 52.4001 5.77216C52.4001 5.67054 52.4001 5.57182 52.4001 5.4702V5.41793L52.4032 4.75884C52.4063 3.5684 52.4032 2.38087 52.4032 1.18753C52.4032 0.336806 52.0444 0 51.1334 0C45.2932 0 39.4529 0 33.6127 0C33.151 0 32.8296 0.0842015 32.6269 0.28164C32.4677 0.435525 32.3773 0.656191 32.3492 0.955252C32.3492 0.961059 32.3492 0.963962 32.3492 0.969769C32.3461 1.03655 32.3429 1.10914 32.3429 1.18753V1.45465C32.3429 1.67822 32.3429 1.89889 32.3429 2.12246C32.3398 3.35645 32.3398 4.59044 32.3461 5.82152C32.3461 6.0567 32.2806 6.2222 32.0965 6.39061C31.0576 7.35167 30.0249 8.31563 28.9892 9.27959C28.4401 9.7877 27.8941 10.2958 27.3419 10.8039C27.1859 10.9491 27.03 11.0914 26.874 11.2336C26.4902 11.585 26.3155 11.9595 26.3186 12.4647C26.3218 13.5971 26.3218 14.7324 26.3249 15.8647C26.328 19.9035 26.3249 23.9452 26.3249 27.9839C26.3249 33.2015 26.3249 38.4162 26.3249 43.6338C26.3249 44.4236 26.7086 44.7749 27.5541 44.7749H57.0548C58.103 44.7749 58.4181 44.4787 58.4181 43.5032C58.4181 33.1115 58.4181 22.7228 58.4212 12.3312C58.4244 12.0321 58.3495 11.7766 58.1748 11.5472ZM51.1709 8.06593C51.2551 7.98753 51.3144 7.76106 51.5265 7.9585C52.5529 8.91375 53.5856 9.869 54.6588 10.862C54.6744 10.8765 54.69 10.891 54.7087 10.9085H54.3624V10.8968H48.1291C48.1447 10.8823 48.1603 10.8678 48.1759 10.8533C49.2023 9.89513 50.185 8.97763 51.1709 8.06593ZM34.3677 2.46217C34.3677 2.38377 34.3646 2.30538 34.3646 2.22408C34.3583 1.9047 34.4675 1.84663 34.7857 1.84663C36.2364 1.84953 37.6903 1.84953 39.141 1.84953H39.5372C39.7774 1.84953 40.0145 1.84953 40.2516 1.84953C43.4993 1.85243 46.747 1.84953 49.9916 1.84663C50.288 1.84663 50.3909 1.89889 50.3847 2.19795C50.3691 2.94705 50.3628 3.69616 50.3722 4.44526C50.3722 4.67173 50.3784 4.8953 50.3815 5.12178C50.3815 5.16533 50.3815 5.20888 50.3847 5.25243C50.3909 5.56021 50.2755 5.59795 49.9885 5.59795C47.4552 5.58924 44.9188 5.59214 42.3855 5.59214C39.8679 5.59214 37.3471 5.58343 34.8294 5.60085C34.4238 5.60376 34.349 5.49633 34.3615 5.145C34.3895 4.25653 34.3864 3.35935 34.3677 2.46217ZM30.1497 10.8184C31.0919 9.95901 32.0279 9.14313 32.8858 8.26046C33.491 7.63621 34.1275 7.42135 35.026 7.43006C39.6214 7.47071 44.2169 7.44458 48.8123 7.44167C48.8373 7.44167 48.8591 7.4649 48.9308 7.50265C48.6376 7.77267 48.3537 8.03108 48.0729 8.2924C47.1619 9.14313 46.251 9.99385 45.3431 10.8475C45.3275 10.862 45.3119 10.8765 45.2963 10.891C45.2651 10.923 45.2308 10.9549 45.1965 10.9868C45.0623 11.1146 44.9313 11.1988 44.716 11.1988C39.8024 11.193 34.8918 11.193 29.9782 11.193C29.9376 11.193 29.897 11.1785 29.7785 11.1553C29.8846 11.0565 29.9906 10.9607 30.0967 10.8649C30.1154 10.8475 30.1341 10.833 30.1497 10.8184ZM44.376 42.4811C44.376 42.6176 44.3635 42.7163 44.3292 42.786C44.2699 42.9021 44.142 42.9399 43.8955 42.937C43.7894 42.937 43.6802 42.937 43.5711 42.937H43.4837C43.2497 42.937 43.0126 42.937 42.7786 42.937C38.2393 42.9254 33.7001 42.9283 29.1608 42.937H28.8114C28.5586 42.937 28.437 42.8963 28.3839 42.7628C28.3683 42.7192 28.359 42.664 28.3527 42.6002C28.3496 42.5711 28.3496 42.5392 28.3496 42.5044C28.3621 37.6642 28.3559 32.827 28.3559 27.9868C28.3559 23.1612 28.3621 18.3385 28.3465 13.5129C28.3465 13.1209 28.4495 13.0396 28.8581 13.0396C29.7223 13.0425 30.5896 13.0425 31.4538 13.0454H31.6535C31.8251 13.0454 31.9998 13.0454 32.1682 13.0454C32.2837 13.0454 32.3991 13.0454 32.5177 13.0454H33.5659C34.4831 13.0454 35.4003 13.0483 36.3207 13.0483H37.8244C38.0178 13.0483 38.2113 13.0483 38.4078 13.0483H39.1378C39.272 13.0483 39.4061 13.0483 39.5372 13.0483H40.2797C40.4918 13.0483 40.704 13.0483 40.9161 13.0483C41.9082 13.0483 42.9003 13.0454 43.8924 13.0425C44.2855 13.0425 44.376 13.1325 44.376 13.4926C44.3666 23.1554 44.3666 32.8183 44.376 42.4811ZM56.3965 42.5334C56.3965 42.8702 56.2967 42.9341 55.9566 42.9341C52.9211 42.9225 49.8824 42.9196 46.8437 42.9341C46.4725 42.9341 46.3851 42.8412 46.3882 42.5015C46.4007 37.6584 46.3945 32.8183 46.3945 27.9752C46.3945 23.1467 46.3976 18.3211 46.3882 13.4926C46.3882 13.1325 46.4787 13.0367 46.8718 13.0396C49.9105 13.0541 52.946 13.0512 55.9847 13.0396C56.3091 13.0396 56.3965 13.1035 56.3965 13.4171C56.3871 23.1235 56.3871 32.8299 56.3965 42.5334ZM48.1291 10.8939L54.3624 10.9056V10.8939H48.1291Z" fill="white"/>
<path d="M43.9485 40.9364C43.7207 40.9364 43.4961 40.9277 43.2715 40.9393C43.1155 40.948 43.0781 40.9045 43.0812 40.7738C43.0905 40.286 43.0843 39.7982 43.0843 39.3105C43.0812 39.0317 42.947 38.9098 42.6163 38.9098C42.1234 38.9098 41.6336 38.904 41.1438 38.9127C40.966 38.9156 40.9254 38.872 40.9254 38.7239C40.9316 30.118 40.9316 21.5149 40.9254 12.9118L55.3014 11.3613L54.8864 11.2046H54.537L43.2652 11.3672C42.4229 11.3672 41.4527 11.3759 40.6103 11.3672C37.0662 11.3294 33.1946 11.582 29.6505 11.5762L28.3808 11.9043C27.8098 11.9043 28.8238 10.7168 28.2528 10.7139L27.9658 11.3643C29.0577 11.3672 30.1528 11.3672 31.2447 11.3672C31.5817 11.3672 31.5411 11.3381 31.5411 11.6256V12.9089C31.5442 21.4917 31.5411 30.0744 31.5411 38.6572C31.5411 38.6891 31.5349 38.7239 31.5442 38.7559C31.5661 38.8836 31.4943 38.9098 31.3601 38.9069C30.9296 38.904 30.5022 38.904 30.0748 38.904C29.6661 38.904 29.5351 39.0172 29.532 39.3714C29.5288 39.6647 29.5351 39.9579 29.532 40.2512C29.5288 40.4719 29.6193 40.7651 29.4914 40.8929C29.3572 41.0206 29.0078 40.919 28.752 40.9306H28.727C28.3808 40.9335 28.2341 41.0526 28.2341 41.3545V43.0966C28.2341 43.5118 28.3527 43.6134 28.8394 43.6134H43.7863C43.8424 43.6134 43.8954 43.6163 43.9485 43.6134C44.2199 43.6047 44.3759 43.4683 44.3759 43.2389V41.2964C44.3759 41.0584 44.2386 40.9393 43.9485 40.9364ZM38.9631 33.1231C38.9631 33.2247 38.9662 33.2886 38.7977 33.2886C37.2347 33.2828 35.6686 33.2857 34.1024 33.2857C34.0744 33.2857 34.0463 33.2828 33.9901 33.2799C35.6467 31.7846 37.2815 30.3096 38.9194 28.8346C38.988 28.8666 38.9599 28.9188 38.9599 28.9595C38.9599 30.3444 38.9599 31.7323 38.9631 33.1231ZM38.9599 38.7472C38.9599 38.8343 38.9787 38.9098 38.8164 38.9098C37.2347 38.9069 35.653 38.9069 33.9932 38.9069C35.6592 37.4058 37.2846 35.9424 38.91 34.479C38.9755 34.5226 38.9568 34.5632 38.9568 34.601C38.9599 35.983 38.9599 37.3651 38.9599 38.7472ZM33.4785 11.5239C33.4785 11.4223 33.491 11.3643 33.6376 11.3643C35.2131 11.3701 36.7823 11.3672 38.3578 11.3701C38.3641 11.3701 38.3703 11.3759 38.4046 11.4049C37.8493 11.9072 37.2877 12.4066 36.7324 12.9118C35.6592 13.8816 34.5766 14.8543 33.4816 15.8415C33.4816 14.8455 33.4816 13.8729 33.4785 12.9089C33.4816 12.4473 33.4785 11.9856 33.4785 11.5239ZM38.9631 21.8343C38.9662 21.9446 38.9506 21.9969 38.7915 21.9969C37.2503 21.9911 35.706 21.994 34.1648 21.994C34.1274 21.994 34.0931 21.9882 34.0151 21.9795C35.6686 20.49 37.2909 19.0266 38.9194 17.5603C38.9787 17.6271 38.9599 17.6823 38.9599 17.7345C38.9599 19.0992 38.9599 20.4667 38.9631 21.8343ZM38.9631 27.4642C38.9662 27.6064 38.9194 27.6384 38.7603 27.6384C37.2097 27.6326 35.6592 27.6355 34.1087 27.6355C34.0868 27.6355 34.0681 27.6326 34.0057 27.6239C35.6623 26.1286 37.2877 24.6623 38.9131 23.1931C38.988 23.228 38.9568 23.2802 38.9568 23.3209C38.9599 24.7029 38.9568 26.085 38.9631 27.4642ZM33.4816 21.5062V21.3523C33.4816 19.9702 33.4816 18.5882 33.4785 17.2061C33.4785 17.1074 33.4691 17.0348 33.6376 17.0348C35.1881 17.0406 36.7387 17.0377 38.2892 17.0377C38.3173 17.0377 38.3453 17.0406 38.4202 17.0493C36.773 18.5388 35.1507 19.9993 33.4816 21.5062ZM33.7249 22.656C35.2193 22.6647 36.7168 22.6589 38.2143 22.6589H38.4514C36.7855 24.1629 35.1507 25.635 33.4785 27.1419V26.927C33.4785 25.5769 33.4816 24.2268 33.4722 22.8795C33.4754 22.714 33.5066 22.6531 33.7249 22.656ZM33.6844 28.2771C35.2568 28.28 36.8291 28.2801 38.4701 28.2801C36.7979 29.7899 35.16 31.2649 33.4785 32.7834V30.0251C33.4785 29.5053 33.4847 28.9827 33.4754 28.463C33.4754 28.3265 33.5159 28.2771 33.6844 28.2771ZM33.6064 33.9506C35.1944 33.9506 36.7792 33.9506 38.4358 33.9506C36.773 35.4488 35.1507 36.9093 33.4785 38.4191C33.4785 36.9238 33.4785 35.4953 33.4754 34.0696C33.4785 33.9912 33.4972 33.9506 33.6064 33.9506ZM38.9599 16.1928C38.9599 16.2828 38.9974 16.3728 38.8133 16.3728C37.2129 16.367 35.6155 16.3699 33.9558 16.3699C35.2505 15.2027 36.5265 14.0558 37.79 12.9147C38.1613 12.5779 38.5357 12.244 38.9069 11.9072C38.9818 11.9537 38.9568 12.0059 38.9568 12.0495V12.9147C38.9599 14.0035 38.9599 15.0982 38.9599 16.1928ZM30.5084 39.5689C32.4427 39.5747 34.377 39.5718 36.3081 39.5718C38.233 39.5718 40.1579 39.5747 42.0828 39.5689C42.2763 39.5689 42.3324 39.6037 42.3231 39.775C42.3075 40.1002 42.3075 40.4283 42.3231 40.7564C42.3324 40.9132 42.2732 40.9393 42.1047 40.9393C38.8445 40.9364 35.5875 40.9364 32.3304 40.9364C31.7158 40.9364 31.1012 40.9335 30.4835 40.9393C30.3306 40.9422 30.2901 40.9074 30.2932 40.7738C30.3057 40.4341 30.3088 40.0915 30.2901 39.7547C30.2838 39.595 30.34 39.5689 30.5084 39.5689ZM43.3994 42.9543C41.0377 42.9485 38.6729 42.9514 36.3144 42.9514C33.962 42.9514 31.6066 42.9485 29.2512 42.9543C29.1201 42.9573 29.0515 42.9369 29.0203 42.8818C28.9985 42.8498 28.9953 42.8005 28.9985 42.7308C29.0078 42.574 29.0109 42.4114 29.0078 42.2517C29.0078 42.0804 29.0047 41.9033 29.0016 41.7291C28.9985 41.6303 29.0328 41.5781 29.1576 41.5897C29.2044 41.5926 29.2512 41.5897 29.298 41.5897H43.3308C43.6927 41.5897 43.6209 41.5868 43.624 41.851C43.624 41.9846 43.6209 42.1181 43.6209 42.2517C43.6178 42.4172 43.6178 42.5856 43.6271 42.7511C43.6303 42.8092 43.624 42.8498 43.6053 42.8818C43.5835 42.9369 43.5211 42.9543 43.3994 42.9543Z" fill="white"/>
<path d="M32.4177 11.5731C32.4177 11.4134 32.4488 11.3495 32.6546 11.3582C32.8043 11.364 32.851 11.3959 32.851 11.5295C32.8479 11.9883 32.8479 12.4499 32.8479 12.9087C32.8448 14.0788 32.8448 15.2489 32.8448 16.419V38.7092C32.8448 38.8834 32.6453 38.9821 32.4644 38.9008C32.4208 38.8805 32.4208 38.8515 32.4208 38.8195C32.4177 38.7673 32.4208 38.7121 32.4208 38.6598V25.1382C32.4208 21.0617 32.4208 16.9852 32.4146 12.9087C32.4208 12.4644 32.4177 12.0173 32.4177 11.5731Z" fill="white"/>
<path d="M40.2793 38.7036C40.2793 38.8343 40.2886 38.9214 40.0704 38.9185C39.874 38.9156 39.8491 38.8575 39.8491 38.7124C39.8553 34.1916 39.8522 29.668 39.8522 25.1472C39.8522 21.0678 39.8553 16.9884 39.8491 12.9118C39.8491 12.4676 39.8459 12.0263 39.8459 11.582C39.8459 11.4049 39.8927 11.3469 40.1016 11.3643C40.2294 11.373 40.2918 11.402 40.2762 11.5153C40.2699 11.5414 40.2731 11.5675 40.2731 11.5937V12.9118C40.2793 21.5062 40.2793 30.1064 40.2793 38.7036Z" fill="white"/>
<path d="M50.7965 22.8999H47.5894V25.1414H50.7965V22.8999Z" fill="white"/>
<path d="M50.7965 25.9136H47.5894V28.1551H50.7965V25.9136Z" fill="white"/>
<path d="M50.7965 28.9277H47.5894V31.1692H50.7965V28.9277Z" fill="white"/>
<path d="M50.7965 31.9443H47.5894V34.1858H50.7965V31.9443Z" fill="white"/>
<path d="M50.7965 34.958H47.5894V37.1995H50.7965V34.958Z" fill="white"/>
<path d="M50.7965 37.9751H47.5894V40.2166H50.7965V37.9751Z" fill="white"/>
<path d="M55.3014 22.8999H52.0942V25.1414H55.3014V22.8999Z" fill="white"/>
<path d="M55.3014 25.9136H52.0942V28.1551H55.3014V25.9136Z" fill="white"/>
<path d="M50.7716 16.8691H47.5645V19.1106H50.7716V16.8691Z" fill="white"/>
<path d="M50.7716 19.8833H47.5645V22.1248H50.7716V19.8833Z" fill="white"/>
<path d="M55.2733 16.8691H52.0662V19.1106H55.2733V16.8691Z" fill="white"/>
<path d="M55.2733 19.8833H52.0662V22.1248H55.2733V19.8833Z" fill="white"/>
<path d="M55.3014 28.9277H52.0942V31.1692H55.3014V28.9277Z" fill="white"/>
<path d="M55.3014 31.9443H52.0942V34.1858H55.3014V31.9443Z" fill="white"/>
<path d="M55.3014 34.958H52.0942V37.1995H55.3014V34.958Z" fill="white"/>
<path d="M55.3014 37.9751H52.0942V40.2166H55.3014V37.9751Z" fill="white"/>
<path d="M6.25259 58.0322C5.37905 58.0322 4.56167 57.8929 3.80044 57.6112C3.03921 57.3296 2.3747 56.9405 1.81002 56.4382C1.24222 55.9359 0.799207 55.3523 0.480989 54.6787C0.162771 54.008 0.00366211 53.2821 0.00366211 52.5011C0.00366211 51.7287 0.162771 51.0087 0.480989 50.3438C0.799207 49.6759 1.24222 49.0923 1.81002 48.5929C2.37782 48.0906 3.03921 47.6987 3.7942 47.4141C4.54919 47.1296 5.36969 46.9873 6.25571 46.9873C7.08557 46.9873 7.80312 47.0802 8.40212 47.2631C9.00112 47.4461 9.60324 47.7509 10.2085 48.1748C10.2958 48.23 10.3613 48.2881 10.4113 48.3461C10.4612 48.4071 10.4924 48.4652 10.508 48.5262C10.5236 48.5871 10.5329 48.6568 10.5329 48.741C10.5329 48.9152 10.4612 49.0604 10.3146 49.1765C10.1679 49.2927 9.99321 49.3566 9.78731 49.3711C9.5814 49.3856 9.38174 49.3275 9.18831 49.1998C8.78898 48.9065 8.37716 48.68 7.94975 48.5233C7.52234 48.3665 6.96078 48.2881 6.25883 48.2881C5.62239 48.2881 5.0234 48.3984 4.46183 48.6191C3.90027 48.8397 3.40735 49.1446 2.97994 49.5308C2.55253 49.9169 2.22183 50.3641 1.98473 50.8751C1.74762 51.3861 1.62907 51.9291 1.62907 52.5098C1.62907 53.0992 1.74762 53.6479 1.98473 54.159C2.22183 54.67 2.55565 55.1171 2.97994 55.5033C3.40423 55.8894 3.90027 56.1914 4.46183 56.4063C5.0234 56.6211 5.62239 56.7315 6.25883 56.7315C6.80791 56.7315 7.32892 56.6502 7.82184 56.4905C8.31165 56.3308 8.78586 56.1072 9.23823 55.8227C9.43165 55.7036 9.62508 55.6514 9.81227 55.663C9.99945 55.6775 10.1617 55.7414 10.2896 55.8575C10.4206 55.9736 10.483 56.1304 10.483 56.3337C10.483 56.4266 10.4612 56.5166 10.4175 56.6037C10.3738 56.6908 10.3083 56.7721 10.2241 56.8447C9.64068 57.2396 9.01672 57.5386 8.35221 57.7419C7.68457 57.9306 6.98574 58.0322 6.25259 58.0322Z" fill="white"/>
<path d="M13.8302 57.8958C13.5931 57.8958 13.3965 57.829 13.2374 57.6955C13.0783 57.5619 13.0034 57.3935 13.0034 57.1932V51.0552C13.0034 50.8432 13.0814 50.6748 13.2374 50.5441C13.3934 50.4164 13.5899 50.3496 13.8302 50.3496C14.1765 50.3496 14.4666 50.4919 14.7037 50.7764L18.0543 54.8994L21.4081 50.7764C21.6452 50.4919 21.9385 50.3496 22.2817 50.3496C22.5312 50.3496 22.7309 50.4135 22.8807 50.5441C23.0304 50.6719 23.1084 50.8432 23.1084 51.0552V57.1932C23.1084 57.3964 23.0335 57.5619 22.8807 57.6955C22.7278 57.829 22.5312 57.8958 22.2817 57.8958C22.0446 57.8958 21.848 57.829 21.692 57.6955C21.536 57.5619 21.458 57.3935 21.458 57.1932V52.173L21.8792 52.2833L18.8998 55.8692C18.6284 56.1915 18.3383 56.3511 18.0263 56.3453C17.7143 56.3395 17.4273 56.1827 17.1683 55.8692L14.2357 52.2833L14.6569 52.173V57.1932C14.6569 57.3964 14.582 57.5619 14.4292 57.6955C14.2763 57.829 14.0766 57.8958 13.8302 57.8958Z" fill="white"/>
<path d="M30.1839 57.951C29.2886 57.951 28.493 57.7884 27.7942 57.4603C27.0985 57.1351 26.5525 56.6822 26.1594 56.1102C25.7663 55.5353 25.5667 54.8762 25.5667 54.13C25.5667 53.3751 25.7538 52.7131 26.1251 52.1382C26.4963 51.5633 27.0142 51.1132 27.6725 50.7881C28.3308 50.4629 29.0858 50.2974 29.9406 50.2974C30.7829 50.2974 31.5067 50.4571 32.112 50.7735C32.7172 51.09 33.1789 51.5285 33.4971 52.083C33.8154 52.6405 33.9745 53.2793 33.9745 54.008C33.9745 54.1822 33.9027 54.3274 33.7654 54.4436C33.6251 54.5597 33.4472 54.6149 33.232 54.6149H26.7023V53.5115H33.1789L32.5144 53.8977C32.5019 53.439 32.3959 53.0267 32.19 52.6637C31.9841 52.3008 31.6939 52.0133 31.3164 51.8014C30.9389 51.5894 30.4803 51.4849 29.9406 51.4849C29.326 51.4849 28.7988 51.601 28.362 51.8304C27.9252 52.0598 27.5945 52.3763 27.3668 52.774C27.139 53.1747 27.0267 53.6277 27.0267 54.1329C27.0267 54.6381 27.1609 55.0881 27.4323 55.483C27.7006 55.8779 28.075 56.1915 28.5492 56.4209C29.0234 56.6502 29.5693 56.7664 30.1839 56.7664C30.5178 56.7664 30.8609 56.7141 31.2135 56.6067C31.5629 56.5021 31.8468 56.3802 32.0652 56.2408C32.2274 56.1392 32.4021 56.0869 32.5924 56.0811C32.7827 56.0753 32.9449 56.1247 33.0853 56.2263C33.2694 56.3628 33.3661 56.5167 33.3755 56.6822C33.3848 56.8477 33.3006 56.9899 33.1165 57.109C32.7484 57.3558 32.2929 57.559 31.7469 57.7158C31.201 57.8726 30.68 57.951 30.1839 57.951Z" fill="white"/>
<path d="M36.9041 57.9102C36.667 57.9102 36.4705 57.8435 36.3114 57.7099C36.1554 57.5763 36.0774 57.4079 36.0774 57.2076V51.0696C36.0774 50.8576 36.1554 50.6892 36.3114 50.5586C36.4674 50.4308 36.6639 50.364 36.9041 50.364C37.1506 50.364 37.3534 50.4279 37.5031 50.5586C37.6529 50.6863 37.7309 50.8576 37.7309 51.0696V57.2076C37.7309 57.4108 37.656 57.5763 37.5031 57.7099C37.3534 57.8435 37.1537 57.9102 36.9041 57.9102ZM42.3138 57.9102C42.0767 57.9102 41.8802 57.8435 41.7242 57.7099C41.5682 57.5763 41.4902 57.4079 41.4902 57.2076V53.2646C41.4902 52.6868 41.3218 52.2571 40.9879 51.9755C40.6541 51.6938 40.2173 51.5545 39.6776 51.5545C39.1161 51.5545 38.6512 51.72 38.2862 52.051C37.9181 52.382 37.7371 52.8059 37.7371 53.3198H36.7169C36.7169 52.7217 36.8573 52.1961 37.1381 51.7403C37.4189 51.2844 37.8058 50.9302 38.3049 50.6718C38.801 50.4134 39.3688 50.2856 40.0052 50.2856C40.6198 50.2856 41.1658 50.4018 41.64 50.6312C42.1142 50.8605 42.4854 51.2002 42.7506 51.6445C43.0158 52.0916 43.1468 52.6317 43.1468 53.2646V57.2076C43.1468 57.4108 43.072 57.5763 42.9191 57.7099C42.7631 57.8435 42.5634 57.9102 42.3138 57.9102ZM47.708 57.9102C47.4708 57.9102 47.2743 57.8435 47.1183 57.7099C46.9623 57.5763 46.8843 57.4079 46.8843 57.2076V53.2646C46.8843 52.6868 46.7159 52.2571 46.382 51.9755C46.0482 51.6938 45.6115 51.5545 45.0686 51.5545C44.5071 51.5545 44.0453 51.72 43.6834 52.051C43.3215 52.382 43.1406 52.8059 43.1406 53.3198H41.796C41.796 52.7217 41.9457 52.1961 42.2483 51.7403C42.5509 51.2844 42.9752 50.9302 43.5181 50.6718C44.064 50.4134 44.688 50.2856 45.39 50.2856C46.0046 50.2856 46.5505 50.4018 47.0247 50.6312C47.4989 50.8605 47.8702 51.2002 48.1354 51.6445C48.4005 52.0916 48.5316 52.6317 48.5316 53.2646V57.2076C48.5316 57.4108 48.4567 57.5763 48.3038 57.7099C48.1541 57.8435 47.9544 57.9102 47.708 57.9102Z" fill="white"/>
<path d="M54.9614 57.951C54.1721 57.951 53.467 57.7826 52.8399 57.4487C52.2128 57.1119 51.7199 56.659 51.358 56.0841C50.9961 55.5092 50.8152 54.8588 50.8152 54.1329C50.8152 53.407 51.0117 52.7537 51.4079 52.176C51.801 51.5953 52.3376 51.1394 53.0115 50.8026C53.6854 50.4658 54.4435 50.3003 55.2858 50.3003C56.1282 50.3003 56.8832 50.4687 57.5539 50.8026C58.2247 51.1394 58.755 51.5953 59.1481 52.176C59.5412 52.7537 59.7378 53.407 59.7378 54.1329H59.1076C59.1076 54.8588 58.9266 55.5092 58.5647 56.0841C58.2028 56.659 57.7099 57.1148 57.0828 57.4487C56.4558 57.7826 55.7476 57.951 54.9614 57.951ZM55.2858 56.7083C55.8349 56.7083 56.3278 56.5951 56.7584 56.3715C57.1889 56.145 57.529 55.8373 57.7785 55.4482C58.0281 55.0562 58.1498 54.6178 58.1498 54.13C58.1498 53.6335 58.025 53.1893 57.7785 52.8002C57.529 52.4082 57.1889 52.1005 56.7584 51.8769C56.3278 51.6504 55.8349 51.5401 55.2858 51.5401C54.7461 51.5401 54.2563 51.6533 53.8195 51.8769C53.3828 52.1034 53.0365 52.4111 52.7838 52.8002C52.5311 53.1922 52.4032 53.6335 52.4032 54.13C52.4032 54.6178 52.5311 55.0562 52.7838 55.4482C53.0365 55.8402 53.3828 56.1479 53.8195 56.3715C54.2563 56.598 54.7461 56.7083 55.2858 56.7083ZM58.911 57.9104C58.6739 57.9104 58.4774 57.8436 58.3214 57.71C58.1654 57.5765 58.0874 57.4081 58.0874 57.2077V55.0969L58.3963 53.6364L59.7409 54.1329V57.2077C59.7409 57.411 59.6629 57.5765 59.5069 57.71C59.3478 57.8436 59.1481 57.9104 58.911 57.9104Z" fill="white"/>
<path d="M63.2039 57.8955C62.9668 57.8955 62.7671 57.8258 62.6049 57.6894C62.4427 57.55 62.3616 57.3816 62.3616 57.1784V47.8407C62.3616 47.6287 62.4427 47.4574 62.6049 47.3239C62.7671 47.1903 62.9668 47.1235 63.2039 47.1235C63.4535 47.1235 63.6532 47.1903 63.8123 47.3239C63.9683 47.4574 64.0463 47.6287 64.0463 47.8407V51.7982H71.5587V47.8407C71.5587 47.6287 71.6398 47.4574 71.802 47.3239C71.9643 47.1903 72.1639 47.1235 72.401 47.1235C72.6506 47.1235 72.8503 47.1903 73 47.3239C73.1498 47.4574 73.2278 47.6287 73.2278 47.8407V57.1784C73.2278 57.3816 73.1529 57.55 73 57.6894C72.8472 57.8287 72.6506 57.8955 72.401 57.8955C72.1639 57.8955 71.9643 57.8258 71.802 57.6894C71.6398 57.55 71.5587 57.3816 71.5587 57.1784V53.0699H64.0463V57.1784C64.0463 57.3816 63.9683 57.55 63.8123 57.6894C63.6563 57.8287 63.4504 57.8955 63.2039 57.8955Z" fill="white"/>
<path d="M75.9637 57.8955C75.6611 57.8955 75.4302 57.7852 75.268 57.5646C75.1057 57.3439 75.0901 57.1087 75.218 56.8619L79.7667 47.6084C79.9289 47.2862 80.1941 47.1265 80.5591 47.1265C80.9491 47.1265 81.2112 47.2862 81.3515 47.6084L85.9189 56.8909C86.0375 57.1494 86.0187 57.3816 85.8627 57.5878C85.7068 57.7939 85.4728 57.8985 85.1577 57.8985C84.9954 57.8985 84.8426 57.8607 84.696 57.7823C84.5493 57.7039 84.4464 57.5965 84.3809 57.4571L80.3657 48.9615H80.8181L76.7374 57.4571C76.6625 57.6052 76.5502 57.7155 76.4067 57.7881C76.2632 57.8578 76.1134 57.8955 75.9637 57.8955ZM76.8216 55.5234L77.4705 54.3388H83.8193L84.4682 55.5234H76.8216Z" fill="white"/>
<path d="M0.630248 67.2333C0.570972 67.2333 0.524176 67.2188 0.489858 67.1868C0.45554 67.1578 0.439941 67.1172 0.439941 67.0707V62.5122C0.439941 62.4657 0.45554 62.428 0.489858 62.3961C0.521056 62.367 0.567853 62.3496 0.630248 62.3496H1.0483C1.10758 62.3496 1.15437 62.3641 1.19181 62.3961C1.22613 62.4251 1.24485 62.4657 1.24485 62.5122V66.6032H3.24775V62.5122C3.24775 62.4657 3.26647 62.428 3.30078 62.3961C3.3351 62.367 3.3819 62.3496 3.43494 62.3496H3.85299C3.91226 62.3496 3.95906 62.3641 3.9965 62.3961C4.03081 62.4251 4.04953 62.4657 4.04953 62.5122V66.6032H6.05243V62.5122C6.05243 62.4657 6.07115 62.428 6.10547 62.3961C6.13979 62.367 6.18659 62.3496 6.23962 62.3496H6.65767C6.71695 62.3496 6.76687 62.3641 6.80118 62.3961C6.8355 62.4251 6.85422 62.4657 6.85422 62.5122V67.0707C6.85422 67.1172 6.8355 67.1549 6.80118 67.1868C6.76687 67.2188 6.71695 67.2333 6.65767 67.2333H0.630248Z" fill="white"/>
<path d="M8.36101 67.2334C8.30798 67.2334 8.26118 67.2189 8.22686 67.1869C8.19255 67.1579 8.17383 67.1172 8.17383 67.0708V63.7666C8.17383 63.7201 8.19255 63.6824 8.22686 63.6505C8.26118 63.6214 8.30798 63.604 8.36101 63.604H8.74475C8.79779 63.604 8.84458 63.6185 8.8789 63.6505C8.91322 63.6795 8.93194 63.7201 8.93194 63.7666V65.1051H9.67756L10.782 63.7114C10.81 63.6795 10.8381 63.6534 10.8724 63.6359C10.9068 63.6185 10.9504 63.6069 11.0035 63.6069H11.4278C11.4777 63.6069 11.5182 63.6156 11.5494 63.6359C11.5838 63.6534 11.5994 63.6824 11.5994 63.7201C11.5994 63.7289 11.5962 63.7434 11.5869 63.7579C11.5775 63.7724 11.5682 63.7898 11.5588 63.8043L10.3327 65.3432L11.7241 67.0301C11.7522 67.0592 11.7647 67.0882 11.7647 67.1201C11.7647 67.1579 11.7491 67.184 11.721 67.2043C11.6898 67.2218 11.6524 67.2334 11.6025 67.2334H11.1033C11.0534 67.2334 11.0128 67.2247 10.9816 67.2043C10.9504 67.1869 10.9192 67.1608 10.8912 67.1289L9.69004 65.6713H8.93818V67.0708C8.93818 67.1172 8.91946 67.155 8.88514 67.1869C8.85082 67.216 8.80402 67.2334 8.75099 67.2334H8.36101Z" fill="white"/>
<path d="M14.1016 67.303C13.6866 67.303 13.3403 67.2362 13.0627 67.0997C12.785 66.9633 12.5729 66.7774 12.4262 66.5394C12.2796 66.3013 12.1985 66.0283 12.1798 65.7206C12.1735 65.6422 12.1704 65.5406 12.1704 65.4186C12.1704 65.2967 12.1735 65.1979 12.1798 65.1224C12.1954 64.8118 12.2796 64.5359 12.4294 64.3008C12.5791 64.0627 12.7944 63.8768 13.072 63.7433C13.3497 63.6097 13.6929 63.54 14.1016 63.54C14.5103 63.54 14.8534 63.6068 15.1311 63.7433C15.4087 63.8768 15.624 64.0627 15.7738 64.3008C15.9235 64.5388 16.0077 64.8118 16.0233 65.1224C16.0296 65.1979 16.0327 65.2967 16.0327 65.4186C16.0327 65.5406 16.0296 65.6422 16.0233 65.7206C16.0077 66.0283 15.9266 66.3013 15.7769 66.5394C15.6303 66.7774 15.4181 66.9662 15.1404 67.0997C14.8628 67.2362 14.5165 67.303 14.1016 67.303ZM14.1016 66.7687C14.4385 66.7687 14.7099 66.6758 14.9127 66.4929C15.1155 66.31 15.2247 66.04 15.2403 65.6886C15.2465 65.6189 15.2496 65.5318 15.2496 65.4244C15.2496 65.317 15.2465 65.2299 15.2403 65.1602C15.2247 64.806 15.1155 64.5388 14.9127 64.3559C14.7099 64.173 14.4416 64.0801 14.1016 64.0801C13.7646 64.0801 13.4932 64.173 13.2873 64.3559C13.0814 64.5388 12.9753 64.8089 12.9628 65.1602C12.9566 65.2299 12.9535 65.317 12.9535 65.4244C12.9535 65.5318 12.9566 65.6189 12.9628 65.6886C12.9753 66.0429 13.0814 66.31 13.2873 66.4929C13.4932 66.6758 13.7646 66.7687 14.1016 66.7687Z" fill="white"/>
<path d="M16.7752 67.2334C16.7221 67.2334 16.6753 67.216 16.6348 67.184C16.5973 67.1521 16.5786 67.1115 16.5786 67.065V66.8066C16.5786 66.7079 16.6348 66.6585 16.7502 66.6527C16.9187 66.6469 17.0622 66.5801 17.1745 66.4466C17.2899 66.313 17.3773 66.1039 17.4366 65.8136C17.4958 65.5232 17.527 65.14 17.527 64.6609V63.7695C17.527 63.7231 17.5457 63.6853 17.5801 63.6534C17.6144 63.6244 17.6612 63.6069 17.7142 63.6069H20.3161C20.3692 63.6069 20.416 63.6214 20.4503 63.6534C20.4846 63.6824 20.5033 63.7231 20.5033 63.7695V67.0737C20.5033 67.1202 20.4846 67.1579 20.4503 67.1899C20.416 67.2189 20.3692 67.2363 20.3161 67.2363H19.923C19.8669 67.2363 19.8232 67.2218 19.792 67.1899C19.7608 67.1579 19.7421 67.1202 19.7421 67.0737V64.1673H18.2695V64.7393C18.2695 65.1864 18.2383 65.5668 18.1791 65.8862C18.1198 66.2056 18.0262 66.4611 17.9045 66.6585C17.7829 66.856 17.6269 67.0011 17.4397 67.094C17.2556 67.1869 17.031 67.2334 16.7752 67.2334Z" fill="white"/>
<path d="M22.9087 67.3029C22.6373 67.3029 22.3877 67.2565 22.1631 67.1636C21.9385 67.0706 21.7607 66.9458 21.6234 66.7861C21.4861 66.6293 21.4175 66.4493 21.4175 66.249C21.4175 65.9296 21.5704 65.6741 21.8761 65.4824C22.1818 65.2908 22.578 65.1659 23.071 65.105L24.2908 64.9598V64.7566C24.2908 64.533 24.2159 64.3588 24.0662 64.2339C23.9164 64.1091 23.6731 64.0452 23.333 64.0452C23.0866 64.0452 22.89 64.0858 22.7403 64.17C22.5905 64.2542 22.4844 64.3617 22.4252 64.4894C22.394 64.5591 22.3347 64.594 22.2536 64.594H21.8854C21.8262 64.594 21.7794 64.5794 21.7513 64.5475C21.7201 64.5185 21.7076 64.4807 21.7076 64.4401C21.7076 64.3704 21.7388 64.2833 21.8012 64.1817C21.8636 64.08 21.9603 63.9784 22.0914 63.8826C22.2224 63.7839 22.3909 63.7026 22.5936 63.6358C22.7995 63.569 23.0491 63.5342 23.3424 63.5342C23.67 63.5342 23.9445 63.569 24.1691 63.6416C24.3938 63.7142 24.5685 63.81 24.6964 63.932C24.8243 64.0539 24.9179 64.1904 24.974 64.3443C25.0302 64.4981 25.0614 64.652 25.0614 64.8117V67.0706C25.0614 67.1171 25.0427 67.1548 25.0084 67.1868C24.974 67.2158 24.9272 67.2332 24.8742 67.2332H24.4967C24.4374 67.2332 24.3906 67.2187 24.3563 67.1868C24.3251 67.1577 24.3064 67.1171 24.3064 67.0706V66.7716C24.2346 66.8558 24.1411 66.9371 24.0194 67.0184C23.9008 67.0997 23.748 67.1665 23.5701 67.2216C23.3923 67.2768 23.1708 67.3029 22.9087 67.3029ZM23.0834 66.7803C23.3081 66.7803 23.5109 66.7396 23.698 66.6583C23.8821 66.577 24.0287 66.4493 24.1348 66.278C24.2409 66.1067 24.2939 65.8889 24.2939 65.6305V65.436L23.3455 65.555C22.9587 65.6015 22.6654 65.6799 22.4688 65.7873C22.2723 65.8976 22.1756 66.0341 22.1756 66.2025C22.1756 66.3332 22.2193 66.4406 22.3097 66.5277C22.4002 66.6148 22.5156 66.6787 22.6529 66.7193C22.7902 66.76 22.9337 66.7803 23.0834 66.7803Z" fill="white"/>
<path d="M29.9594 67.303C29.5726 67.303 29.2387 67.2391 28.958 67.1113C28.6772 66.9836 28.4619 66.8007 28.309 66.5597C28.1562 66.3216 28.0751 66.0341 28.0626 65.7002C28.0563 65.6306 28.0532 65.5377 28.0532 65.4215C28.0532 65.3054 28.0563 65.2125 28.0626 65.1428C28.0751 64.8089 28.1562 64.5214 28.309 64.2833C28.4619 64.0452 28.6772 63.8594 28.958 63.7317C29.2387 63.6039 29.5726 63.54 29.9594 63.54C30.2745 63.54 30.5459 63.5778 30.7737 63.6504C30.9983 63.7259 31.1855 63.8188 31.3352 63.9349C31.4819 64.0511 31.5942 64.1759 31.6659 64.3124C31.7408 64.4459 31.7782 64.5737 31.7845 64.6956C31.7907 64.7421 31.772 64.7798 31.7346 64.806C31.6971 64.8321 31.6503 64.8466 31.5942 64.8466H31.2011C31.1481 64.8466 31.1044 64.835 31.0794 64.8147C31.0513 64.7944 31.0233 64.7566 30.9983 64.7072C30.9016 64.4808 30.7674 64.3182 30.599 64.2253C30.4305 64.1324 30.2215 64.0859 29.9688 64.0859C29.6412 64.0859 29.376 64.173 29.1701 64.3443C28.9642 64.5156 28.855 64.7914 28.8394 65.1747C28.8332 65.3431 28.8332 65.5057 28.8394 65.6625C28.855 66.0487 28.9673 66.3245 29.1701 66.4958C29.376 66.6642 29.6412 66.7513 29.9688 66.7513C30.2184 66.7513 30.4305 66.7049 30.599 66.6119C30.7674 66.519 30.9016 66.3593 30.9983 66.13C31.0264 66.0777 31.0513 66.0429 31.0794 66.0225C31.1075 66.0022 31.1481 65.9906 31.2011 65.9906H31.5942C31.6472 65.9906 31.694 66.0051 31.7346 66.0312C31.772 66.0603 31.7876 66.0951 31.7845 66.1416C31.7782 66.2403 31.7533 66.339 31.7096 66.4406C31.6659 66.5423 31.5973 66.6468 31.5006 66.7513C31.4039 66.8558 31.2853 66.9488 31.1449 67.03C31.0045 67.1113 30.833 67.1752 30.6333 67.2246C30.4367 67.2797 30.209 67.303 29.9594 67.303Z" fill="white"/>
<path d="M32.9356 67.2335C32.8826 67.2335 32.8389 67.2189 32.8046 67.1928C32.7702 67.1638 32.7546 67.1289 32.7546 67.0825V63.7434C32.7546 63.7057 32.7734 63.6738 32.8077 63.6505C32.842 63.6244 32.8794 63.6128 32.9169 63.6128H33.3349C33.4223 63.6128 33.4909 63.6505 33.5408 63.7231L34.9322 65.9385L36.3299 63.7231C36.3798 63.6476 36.4485 63.6128 36.5358 63.6128H36.9445C36.9882 63.6128 37.0256 63.6244 37.0599 63.6505C37.0911 63.6767 37.1099 63.7086 37.1099 63.7434V67.0825C37.1099 67.1289 37.0943 67.1667 37.0599 67.1928C37.0256 67.2218 36.9851 67.2335 36.9383 67.2335H36.5389C36.4859 67.2335 36.4422 67.2189 36.4079 67.1928C36.3767 67.1638 36.358 67.1289 36.358 67.0825V64.3009L36.645 64.33L35.3129 66.4756C35.2848 66.5221 35.2536 66.5628 35.2161 66.6005C35.1787 66.6382 35.1194 66.6557 35.0446 66.6557H34.8324C34.7607 66.6557 34.7076 66.6382 34.6702 66.6005C34.6327 66.5628 34.5953 66.5221 34.5641 66.4756L33.2725 64.4345L33.5252 64.4142V67.0825C33.5252 67.1289 33.5096 67.1667 33.4753 67.1928C33.441 67.2189 33.3973 67.2335 33.3443 67.2335H32.9356Z" fill="white"/>
<path d="M40.0269 67.303C39.4653 67.303 39.0192 67.1549 38.6854 66.8617C38.3516 66.5655 38.1706 66.1648 38.1363 65.6538C38.1301 65.5928 38.127 65.5144 38.127 65.4215C38.127 65.3257 38.1301 65.2473 38.1363 65.1893C38.1582 64.8583 38.2486 64.5708 38.4077 64.3211C38.5668 64.0714 38.7821 63.8798 39.0567 63.7462C39.3312 63.6127 39.6556 63.543 40.0269 63.543C40.4418 63.543 40.7881 63.6185 41.0689 63.7665C41.3497 63.9146 41.565 64.1266 41.7116 64.3995C41.8582 64.6724 41.9331 64.9947 41.9331 65.3606V65.4796C41.9331 65.5319 41.9144 65.5696 41.8801 65.5986C41.8457 65.6277 41.7989 65.6393 41.7459 65.6393H38.9163C38.9163 65.6451 38.9163 65.6538 38.9163 65.6683C38.9163 65.6828 38.9163 65.6945 38.9163 65.7032C38.9287 65.8948 38.9755 66.0719 39.0629 66.2374C39.1502 66.4029 39.275 66.5365 39.4404 66.6381C39.6026 66.7397 39.7992 66.792 40.03 66.792C40.2266 66.792 40.3888 66.7659 40.5198 66.7165C40.6509 66.6642 40.7569 66.6091 40.838 66.5452C40.9192 66.4813 40.9753 66.4349 41.0003 66.4029C41.0502 66.3419 41.0876 66.3071 41.1157 66.2955C41.1438 66.2839 41.1875 66.2781 41.2467 66.2781H41.6398C41.6929 66.2781 41.7397 66.2897 41.774 66.3158C41.8083 66.3419 41.8239 66.3768 41.8177 66.4232C41.8114 66.4929 41.7677 66.5771 41.6866 66.6787C41.6055 66.7775 41.487 66.8762 41.3341 66.9749C41.1812 67.0736 40.9972 67.152 40.7788 67.2159C40.5604 67.2798 40.3108 67.303 40.0269 67.303ZM38.9163 65.1573H41.1563V65.137C41.1563 64.9279 41.1126 64.7421 41.0221 64.5795C40.9316 64.4169 40.8037 64.2892 40.6321 64.1934C40.4637 64.0975 40.2609 64.0511 40.0269 64.0511C39.7929 64.0511 39.5933 64.0975 39.4248 64.1934C39.2594 64.2892 39.1315 64.4169 39.0442 64.5795C38.9568 64.7421 38.9131 64.9279 38.9131 65.137V65.1573H38.9163Z" fill="white"/>
<path d="M44.2137 67.2334C44.1607 67.2334 44.1139 67.2189 44.0796 67.1869C44.0453 67.1579 44.0266 67.1172 44.0266 67.0708V64.1673H42.6039C42.5509 64.1673 42.5041 64.1528 42.4698 64.1208C42.4355 64.0918 42.4167 64.0511 42.4167 64.0047V63.7666C42.4167 63.7201 42.4355 63.6824 42.4698 63.6505C42.5041 63.6214 42.5509 63.604 42.6039 63.604H46.2042C46.2572 63.604 46.304 63.6185 46.3383 63.6505C46.3726 63.6795 46.3914 63.7201 46.3914 63.7666V64.0047C46.3914 64.0511 46.3726 64.0889 46.3383 64.1208C46.304 64.1499 46.2572 64.1673 46.2042 64.1673H44.7815V67.0737C44.7815 67.1201 44.7659 67.1579 44.7316 67.1898C44.6973 67.2218 44.6536 67.2363 44.5912 67.2363H44.2137V67.2334Z" fill="white"/>
<path d="M47.2897 67.2334C47.2367 67.2334 47.1899 67.2189 47.1556 67.1869C47.1213 67.1579 47.1025 67.1172 47.1025 67.0708V63.7666C47.1025 63.7201 47.1213 63.6824 47.1556 63.6505C47.1899 63.6214 47.2367 63.604 47.2897 63.604H47.6828C47.7359 63.604 47.7827 63.6185 47.8138 63.6505C47.845 63.6795 47.8638 63.7201 47.8638 63.7666V65.1051H50.0975V63.7666C50.0975 63.7201 50.1163 63.6824 50.1506 63.6505C50.1849 63.6214 50.2317 63.604 50.2847 63.604H50.6685C50.7215 63.604 50.7683 63.6185 50.8026 63.6505C50.8369 63.6795 50.8556 63.7201 50.8556 63.7666V67.0708C50.8556 67.1172 50.8369 67.155 50.8026 67.1869C50.7683 67.216 50.7215 67.2334 50.6685 67.2334H50.2847C50.2317 67.2334 50.1849 67.2189 50.1506 67.1869C50.1163 67.155 50.0975 67.1172 50.0975 67.0708V65.6626H47.8638V67.0708C47.8638 67.1172 47.8482 67.155 47.8138 67.1869C47.7795 67.2189 47.7359 67.2334 47.6828 67.2334H47.2897Z" fill="white"/>
<path d="M53.8257 67.303C53.4107 67.303 53.0645 67.2362 52.7868 67.0997C52.5091 66.9633 52.297 66.7774 52.1504 66.5394C52.0037 66.3013 51.9226 66.0283 51.9039 65.7206C51.8977 65.6422 51.8945 65.5406 51.8945 65.4186C51.8945 65.2967 51.8977 65.1979 51.9039 65.1224C51.9195 64.8118 52.0037 64.5359 52.1535 64.3008C52.3032 64.0627 52.5185 63.8768 52.7961 63.7433C53.0738 63.6097 53.417 63.54 53.8257 63.54C54.2344 63.54 54.5775 63.6068 54.8552 63.7433C55.1329 63.8768 55.3481 64.0627 55.4979 64.3008C55.6476 64.5388 55.7319 64.8118 55.7475 65.1224C55.7537 65.1979 55.7568 65.2967 55.7568 65.4186C55.7568 65.5406 55.7537 65.6422 55.7475 65.7206C55.7319 66.0283 55.6508 66.3013 55.501 66.5394C55.3544 66.7774 55.1422 66.9662 54.8646 67.0997C54.5838 67.2362 54.2375 67.303 53.8257 67.303ZM53.8257 66.7687C54.1626 66.7687 54.434 66.6758 54.6368 66.4929C54.8396 66.31 54.9488 66.04 54.9644 65.6886C54.9706 65.6189 54.9738 65.5318 54.9738 65.4244C54.9738 65.317 54.9706 65.2299 54.9644 65.1602C54.9488 64.806 54.8396 64.5388 54.6368 64.3559C54.434 64.173 54.1657 64.0801 53.8257 64.0801C53.4887 64.0801 53.2173 64.173 53.0114 64.3559C52.8055 64.5388 52.6994 64.8089 52.687 65.1602C52.6807 65.2299 52.6776 65.317 52.6776 65.4244C52.6776 65.5318 52.6807 65.6189 52.687 65.6886C52.6994 66.0429 52.8055 66.31 53.0114 66.4929C53.2142 66.6758 53.4856 66.7687 53.8257 66.7687Z" fill="white"/>
<path d="M56.9643 67.2334C56.9112 67.2334 56.8645 67.2189 56.8301 67.1869C56.7958 67.1579 56.7771 67.1172 56.7771 67.0708V63.7666C56.7771 63.7201 56.7958 63.6824 56.8301 63.6505C56.8645 63.6214 56.9112 63.604 56.9643 63.604H59.4102C59.4632 63.604 59.51 63.6185 59.5412 63.6505C59.5724 63.6795 59.5911 63.7201 59.5911 63.7666V64.0047C59.5911 64.0511 59.5755 64.0889 59.5412 64.1208C59.5069 64.1528 59.4632 64.1673 59.4102 64.1673H57.5383V67.0737C57.5383 67.1201 57.5227 67.1579 57.4884 67.1898C57.4541 67.2218 57.4104 67.2363 57.3574 67.2363H56.9643V67.2334Z" fill="white"/>
<path d="M61.9465 67.303C61.5316 67.303 61.1853 67.2362 60.9076 67.0997C60.63 66.9633 60.4178 66.7774 60.2712 66.5394C60.1246 66.3013 60.0435 66.0283 60.0247 65.7206C60.0185 65.6422 60.0154 65.5406 60.0154 65.4186C60.0154 65.2967 60.0185 65.1979 60.0247 65.1224C60.0403 64.8118 60.1246 64.5359 60.2743 64.3008C60.4241 64.0627 60.6393 63.8768 60.917 63.7433C61.1947 63.6097 61.5378 63.54 61.9465 63.54C62.3552 63.54 62.6984 63.6068 62.9761 63.7433C63.2537 63.8768 63.469 64.0627 63.6187 64.3008C63.7685 64.5388 63.8527 64.8118 63.8683 65.1224C63.8746 65.1979 63.8777 65.2967 63.8777 65.4186C63.8777 65.5406 63.8746 65.6422 63.8683 65.7206C63.8527 66.0283 63.7716 66.3013 63.6219 66.5394C63.4752 66.7774 63.2631 66.9662 62.9854 67.0997C62.7078 67.2362 62.3615 67.303 61.9465 67.303ZM61.9465 66.7687C62.2835 66.7687 62.5549 66.6758 62.7577 66.4929C62.9605 66.31 63.0697 66.04 63.0853 65.6886C63.0915 65.6189 63.0946 65.5318 63.0946 65.4244C63.0946 65.317 63.0915 65.2299 63.0853 65.1602C63.0697 64.806 62.9605 64.5388 62.7577 64.3559C62.5549 64.173 62.2866 64.0801 61.9465 64.0801C61.6096 64.0801 61.3382 64.173 61.1323 64.3559C60.9264 64.5388 60.8203 64.8089 60.8078 65.1602C60.8016 65.2299 60.7984 65.317 60.7984 65.4244C60.7984 65.5318 60.8016 65.6189 60.8078 65.6886C60.8203 66.0429 60.9264 66.31 61.1323 66.4929C61.3382 66.6758 61.6096 66.7687 61.9465 66.7687Z" fill="white"/>
<path d="M66.6574 67.9999C66.6044 67.9999 66.5576 67.9854 66.5233 67.9534C66.4889 67.9215 66.4702 67.8838 66.4702 67.8373V66.8327C66.4702 66.7862 66.4889 66.7485 66.5233 66.7166C66.5576 66.6875 66.6044 66.6701 66.6574 66.6701H66.698C66.8446 66.6643 66.9694 66.5946 67.0755 66.4581C67.1784 66.3217 67.2595 66.1039 67.3126 65.8107C67.3656 65.5145 67.3937 65.1312 67.3937 64.658V63.7666C67.3937 63.7201 67.4124 63.6824 67.4467 63.6505C67.481 63.6214 67.5278 63.604 67.5809 63.604H70.189C70.242 63.604 70.2888 63.6185 70.3232 63.6505C70.3575 63.6795 70.3762 63.7201 70.3762 63.7666V66.6585H70.7599C70.8192 66.6585 70.866 66.673 70.9003 66.7049C70.9315 66.734 70.9502 66.7746 70.9502 66.8211V67.8373C70.9502 67.8838 70.9346 67.9215 70.9003 67.9534C70.866 67.9825 70.8223 67.9999 70.7599 67.9999H70.3762C70.3232 67.9999 70.2764 67.9854 70.242 67.9534C70.2077 67.9244 70.189 67.8838 70.189 67.8373V67.2305H67.2283V67.8373C67.2283 67.8838 67.2096 67.9215 67.1753 67.9534C67.141 67.9825 67.0942 67.9999 67.0411 67.9999H66.6574ZM67.6713 66.6759L69.6181 66.6614V64.1673H68.1362V64.7393C68.1362 65.2329 68.0956 65.6336 68.0145 65.9471C67.9334 66.2636 67.818 66.5046 67.6713 66.6759Z" fill="white"/>
<path d="M73.5022 67.303C72.9407 67.303 72.4946 67.1549 72.1607 66.8617C71.8269 66.5655 71.646 66.1648 71.6117 65.6538C71.6054 65.5928 71.6023 65.5144 71.6023 65.4215C71.6023 65.3257 71.6054 65.2473 71.6117 65.1893C71.6335 64.8583 71.724 64.5708 71.8831 64.3211C72.0422 64.0714 72.2575 63.8798 72.532 63.7462C72.8065 63.6127 73.131 63.543 73.5022 63.543C73.9172 63.543 74.2635 63.6185 74.5443 63.7665C74.825 63.9146 75.0403 64.1266 75.1869 64.3995C75.3336 64.6724 75.4084 64.9947 75.4084 65.3606V65.4796C75.4084 65.5319 75.3897 65.5696 75.3554 65.5986C75.3211 65.6277 75.2743 65.6393 75.2212 65.6393H72.3916C72.3916 65.6451 72.3916 65.6538 72.3916 65.6683C72.3916 65.6828 72.3916 65.6945 72.3916 65.7032C72.4041 65.8948 72.4509 66.0719 72.5382 66.2374C72.6256 66.4029 72.7504 66.5365 72.9157 66.6381C73.078 66.7397 73.2745 66.792 73.5054 66.792C73.7019 66.792 73.8641 66.7659 73.9952 66.7165C74.1262 66.6642 74.2323 66.6091 74.3134 66.5452C74.3945 66.4813 74.4507 66.4349 74.4756 66.4029C74.5255 66.3419 74.563 66.3071 74.591 66.2955C74.6191 66.2839 74.6628 66.2781 74.7221 66.2781H75.1152C75.1682 66.2781 75.215 66.2897 75.2493 66.3158C75.2836 66.3419 75.2992 66.3768 75.293 66.4232C75.2868 66.4929 75.2431 66.5771 75.162 66.6787C75.0809 66.7775 74.9623 66.8762 74.8094 66.9749C74.6566 67.0736 74.4725 67.152 74.2541 67.2159C74.0357 67.2798 73.7861 67.303 73.5022 67.303ZM72.3916 65.1573H74.6316V65.137C74.6316 64.9279 74.5879 64.7421 74.4975 64.5795C74.407 64.4169 74.2791 64.2892 74.1075 64.1934C73.939 64.0975 73.7362 64.0511 73.5022 64.0511C73.2683 64.0511 73.0686 64.0975 72.9001 64.1934C72.7348 64.2892 72.6069 64.4169 72.5195 64.5795C72.4322 64.7421 72.3885 64.9279 72.3885 65.137V65.1573H72.3916Z" fill="white"/>
<path d="M76.1509 67.2334C76.0979 67.2334 76.0511 67.216 76.0105 67.184C75.9731 67.1521 75.9543 67.1115 75.9543 67.065V66.8066C75.9543 66.7079 76.0105 66.6585 76.1259 66.6527C76.2944 66.6469 76.4379 66.5801 76.5502 66.4466C76.6657 66.313 76.753 66.1039 76.8123 65.8136C76.8716 65.5232 76.9028 65.14 76.9028 64.6609V63.7695C76.9028 63.7231 76.9215 63.6853 76.9558 63.6534C76.9901 63.6244 77.0369 63.6069 77.0899 63.6069H79.6918C79.7449 63.6069 79.7917 63.6214 79.826 63.6534C79.8603 63.6824 79.879 63.7231 79.879 63.7695V67.0737C79.879 67.1202 79.8603 67.1579 79.826 67.1899C79.7917 67.2189 79.7449 67.2363 79.6918 67.2363H79.2988C79.2426 67.2363 79.1989 67.2218 79.1677 67.1899C79.1365 67.1579 79.1178 67.1202 79.1178 67.0737V64.1673H77.6453V64.7393C77.6453 65.1864 77.6141 65.5668 77.5548 65.8862C77.4955 66.2056 77.4019 66.4611 77.2803 66.6585C77.1586 66.856 77.0026 67.0011 76.8154 67.094C76.6313 67.1869 76.4098 67.2334 76.1509 67.2334Z" fill="white"/>
<path d="M82.2874 67.3029C82.016 67.3029 81.7664 67.2565 81.5418 67.1636C81.3171 67.0706 81.1393 66.9458 81.002 66.7861C80.8648 66.6293 80.7961 66.4493 80.7961 66.249C80.7961 65.9296 80.949 65.6741 81.2548 65.4824C81.5605 65.2908 81.9567 65.1659 82.4496 65.105L83.6695 64.9598V64.7566C83.6695 64.533 83.5946 64.3588 83.4448 64.2339C83.2951 64.1091 83.0517 64.0452 82.7117 64.0452C82.4652 64.0452 82.2687 64.0858 82.1189 64.17C81.9692 64.2542 81.8631 64.3617 81.8038 64.4894C81.7726 64.5591 81.7134 64.594 81.6322 64.594H81.2641C81.2048 64.594 81.158 64.5794 81.13 64.5475C81.0988 64.5185 81.0863 64.4807 81.0863 64.4401C81.0863 64.3704 81.1175 64.2833 81.1799 64.1817C81.2423 64.08 81.339 63.9784 81.47 63.8826C81.601 63.7839 81.7695 63.7026 81.9723 63.6358C82.1782 63.569 82.4278 63.5342 82.721 63.5342C83.0486 63.5342 83.3232 63.569 83.5478 63.6416C83.7724 63.7142 83.9471 63.81 84.075 63.932C84.2029 64.0539 84.2965 64.1904 84.3527 64.3443C84.4089 64.4981 84.44 64.652 84.44 64.8117V67.0706C84.44 67.1171 84.4213 67.1548 84.387 67.1868C84.3527 67.2158 84.3059 67.2332 84.2529 67.2332H83.8754C83.8161 67.2332 83.7693 67.2187 83.735 67.1868C83.7038 67.1577 83.6851 67.1171 83.6851 67.0706V66.7716C83.6133 66.8558 83.5197 66.9371 83.398 67.0184C83.2795 67.0997 83.1266 67.1665 82.9488 67.2216C82.7678 67.2768 82.5463 67.3029 82.2874 67.3029ZM82.459 66.7803C82.6836 66.7803 82.8864 66.7396 83.0736 66.6583C83.2576 66.577 83.4043 66.4493 83.5103 66.278C83.6164 66.1067 83.6695 65.8889 83.6695 65.6305V65.436L82.721 65.555C82.3342 65.6015 82.0409 65.6799 81.8444 65.7873C81.6478 65.8976 81.5511 66.0341 81.5511 66.2025C81.5511 66.3332 81.5948 66.4406 81.6853 66.5277C81.7757 66.6148 81.8912 66.6787 82.0285 66.7193C82.1688 66.76 82.3092 66.7803 82.459 66.7803Z" fill="white"/>
</g>
<defs>
<clipPath id="clip0_141_398">
<rect width="86" height="68" fill="white"/>
</clipPath>
</defs>
</svg>
