<svg width="66" height="63" viewBox="0 0 66 63" fill="none" xmlns="http://www.w3.org/2000/svg">
<path d="M32.6238 -0.00976562C37.2635 0.00941094 41.9032 -0.0566417 46.5385 0.209699C52.3629 0.544224 57.4845 2.29994 61.1383 6.97476C63.6206 10.1517 64.6087 13.8357 64.7789 17.72C65.1768 26.7671 65.2033 35.8206 64.7745 44.8655C64.4694 51.2918 61.9827 56.6442 55.9416 59.9958C53.0769 61.5853 49.9138 62.2459 46.6512 62.3759C37.2281 62.7466 27.8007 62.7849 18.382 62.3652C12.2459 62.0925 6.97846 59.998 3.41084 54.8799C1.34188 51.9118 0.47539 48.5453 0.31845 45.0338C-0.090479 35.8802 -0.119215 26.7202 0.322871 17.5709C0.608015 11.6943 2.7875 6.65089 8.05715 3.23533C11.2335 1.17492 14.8387 0.424903 18.5987 0.207569C23.2693 -0.0651646 27.9466 0.0158031 32.6238 -0.00976562ZM32.5398 5.67289C30.0752 5.67289 27.6084 5.64945 25.1437 5.67928C22.6415 5.70911 20.1415 5.7432 17.6438 5.94136C11.0302 6.46765 6.65574 10.5523 6.27113 16.9423C5.70084 26.439 5.70084 35.9505 6.26007 45.4472C6.65132 52.1249 10.9484 56.2607 17.8692 56.6378C27.6835 57.1705 37.5111 57.1726 47.3276 56.6335C54.0804 56.2628 58.4416 52.0589 58.824 45.5473C59.381 36.0507 59.381 26.5391 58.824 17.0425C58.4416 10.5224 54.0893 6.45913 47.3276 5.9371C42.4027 5.55783 37.4691 5.75173 32.5398 5.67289Z" fill="#378AD7"/>
<path d="M49.2129 31.267C49.2439 40.1522 41.7815 47.3626 32.5507 47.3668C23.3244 47.3732 15.8532 40.165 15.8731 31.2777C15.893 22.4139 23.2736 15.2823 32.4822 15.2312C41.6975 15.1843 49.182 22.3563 49.2129 31.267ZM32.6834 20.867C26.7174 20.8073 21.7904 25.4246 21.7219 31.1392C21.6511 36.8964 26.419 41.648 32.3496 41.7332C38.3664 41.8184 43.3177 37.1777 43.3686 31.4098C43.4172 25.6568 38.625 20.9266 32.6834 20.867Z" fill="#378AD7"/>
<path d="M53.7687 14.5664C53.7775 16.6737 52.0401 18.3378 49.8474 18.325C47.7077 18.3122 46.0101 16.6715 46.0035 14.6047C45.9946 12.4911 47.7254 10.8291 49.9181 10.8419C52.049 10.8547 53.7598 12.5102 53.7687 14.5664Z" fill="#378AD7"/>
</svg>
