<svg width="75" height="61" viewBox="0 0 75 61" fill="none" xmlns="http://www.w3.org/2000/svg">
<path d="M74.7217 4.71049C74.3042 7.72121 73.4227 11.0442 72.6804 14.4117C69.5953 28.484 66.4639 42.5341 63.3556 56.6064C62.4277 60.866 59.8761 61.825 56.2343 59.238C51.0847 55.5805 45.9352 51.9454 40.8088 48.2656C40.0433 47.7081 39.6258 47.775 38.9531 48.4217C36.4247 50.8749 33.8035 53.2166 31.2287 55.6251C31.0432 55.8036 30.8576 56.0043 30.6256 56.1381C29.9066 56.6064 29.0483 57.2309 28.306 56.8294C27.7725 56.5395 28.1668 55.5582 28.2132 54.8892C28.538 50.3843 28.8859 45.8793 29.1875 41.3521C29.2339 40.5715 29.4658 39.9917 30.0689 39.4565C39.765 31.071 49.4378 22.6633 59.1106 14.2556C59.8761 13.5865 60.6184 12.9175 61.3839 12.2261C61.5694 12.0477 61.8014 11.8247 61.6854 11.5571C61.5694 11.2449 61.2447 11.2003 60.8968 11.178C60.0385 11.1334 59.3426 11.5794 58.6699 11.9808C50.5976 16.8649 42.5485 21.7266 34.4994 26.6107C29.837 29.4207 25.1977 32.253 20.5353 35.0853C19.9322 35.4645 19.3987 35.5537 18.6564 35.3307C13.3908 33.7249 8.10208 32.1638 2.83653 30.5804C1.60713 30.2013 0.0993711 29.8221 0.00658612 28.3725C-0.109395 26.856 1.32877 26.187 2.55817 25.6963C7.77733 23.6892 13.0197 21.7489 18.262 19.8087C35.1257 13.5642 51.9894 7.31978 68.8299 1.07532C69.1314 0.963816 69.4098 0.830007 69.7113 0.7408C72.7964 -0.329679 74.8609 1.16453 74.7217 4.71049Z" fill="#378AD7"/>
</svg>
