<svg width="22" height="23" viewBox="0 0 22 23" fill="none" xmlns="http://www.w3.org/2000/svg">
<path d="M10.9497 19.5771C10.7246 19.5771 10.3955 19.6052 10.0665 19.5715C9.70278 19.5321 9.45455 19.6333 9.20632 19.8976C8.61172 20.5387 7.97671 21.1461 7.36479 21.7759C7.04152 22.1077 6.6836 22.3045 6.216 22.1133C5.74263 21.9165 5.60986 21.5285 5.6214 21.0561C5.63295 20.6568 5.6214 20.2519 5.6214 19.8527C5.6214 19.3747 5.33854 18.9473 4.89403 18.7448C3.01787 17.8957 1.62085 16.5516 1.02048 14.5665C0.512471 12.8738 0.425881 11.0968 0.518246 9.32536C0.570202 8.36374 0.702976 7.40773 0.870388 6.45735C1.05512 5.40575 1.54003 4.5116 2.23277 3.71306C3.19683 2.61084 4.32829 1.71107 5.80036 1.39615C8.01134 0.923775 10.257 0.794433 12.5199 0.918151C13.5879 0.974387 14.6443 1.11498 15.7065 1.26119C16.9707 1.43552 18.0329 1.981 18.9797 2.77955C19.9841 3.62308 20.8327 4.6072 21.156 5.88937C21.589 7.59893 21.7391 9.34223 21.6409 11.1024C21.589 12.0753 21.4562 13.0369 21.2888 14.0042C21.0983 15.0783 20.6076 15.9893 19.8918 16.7991C18.9335 17.89 17.7963 18.7504 16.3415 19.0935C15.2793 19.3409 14.194 19.4478 13.103 19.5265C12.4275 19.5659 11.7464 19.6108 10.9497 19.5771ZM6.4296 19.3128C6.4296 19.8583 6.42383 20.3981 6.4296 20.9436C6.4296 21.0786 6.3661 21.2529 6.56237 21.3148C6.74133 21.3766 6.82792 21.2304 6.93183 21.1292C7.99403 20.0663 9.062 19.0035 10.1242 17.9294C10.2685 17.7832 10.4128 17.7101 10.6264 17.7157C12.0523 17.7551 13.4667 17.6313 14.881 17.457C15.897 17.3277 16.8322 17.0465 17.6173 16.3773C18.4197 15.6912 19.1413 14.9489 19.378 13.8804C19.9033 11.5073 19.8687 9.13416 19.4415 6.74978C19.1529 5.15831 17.2478 3.42626 15.8219 3.1507C14.5635 2.90889 13.2819 2.77392 11.9946 2.73456C10.2743 2.68395 8.55977 2.78517 6.86256 3.06635C5.00372 3.37564 3.80297 4.47786 2.98324 6.04121C2.91974 6.16493 2.86778 6.29989 2.83892 6.44048C2.39441 8.44246 2.30204 10.4613 2.56759 12.4914C2.65419 13.1494 2.69459 13.8298 2.98901 14.4315C3.65288 15.7756 4.70353 16.7316 6.1525 17.2377C6.36609 17.3108 6.44114 17.3952 6.44114 17.6089C6.41805 18.1825 6.42383 18.7504 6.4296 19.3128Z" fill="#378AD7"/>
<path d="M9.4435 8.02057C9.42041 8.35799 9.2934 8.60542 9.0394 8.791C8.83735 8.93721 8.61799 9.07218 8.51985 9.30274C8.44481 9.47145 8.47367 9.64578 8.53717 9.82011C9.05672 11.1866 9.94573 12.2045 11.3485 12.7725C11.9604 13.0199 12.1971 12.9637 12.607 12.4463C13.04 11.9008 13.4498 11.8221 14.0444 12.2157C14.3446 12.4126 14.6448 12.6206 14.9392 12.8287C15.8051 13.4417 15.8802 14.7014 15.0431 15.3537C15.0373 15.3593 15.0316 15.3593 15.0258 15.3649C14.5813 15.708 14.1252 15.8429 13.548 15.6124C11.718 14.8813 10.0323 13.9366 8.64108 12.5532C7.23829 11.1641 6.32618 9.47145 5.6219 7.66629C5.51222 7.38511 5.57572 7.11518 5.7085 6.86212C5.89323 6.50784 6.14145 6.22666 6.44164 5.99609C7.02469 5.55183 7.8733 5.66993 8.3409 6.23228C8.72767 6.69904 9.06827 7.19391 9.36268 7.72815C9.41464 7.82375 9.42619 7.94184 9.4435 8.02057Z" fill="#378AD7"/>
<path d="M11.2612 4.94434C13.6973 5.00057 15.8333 6.82823 16.2143 9.19574C16.2778 9.57814 16.3067 9.96617 16.3471 10.3486C16.3702 10.5566 16.3182 10.7535 16.0757 10.7647C15.8102 10.7816 15.7525 10.5735 15.7351 10.3598C15.7005 9.87619 15.6774 9.38694 15.5504 8.91457C15.0597 7.07004 13.478 5.76537 11.5383 5.60229C11.3594 5.58542 11.1746 5.56293 10.9957 5.54606C10.7994 5.52356 10.6147 5.45608 10.632 5.23676C10.6493 5.03431 10.8052 4.93871 11.0188 4.94996C11.0996 4.94434 11.1804 4.94434 11.2612 4.94434Z" fill="#378AD7"/>
<path d="M14.9849 9.67406C14.9849 9.78091 14.9906 9.84839 14.9849 9.91587C14.9733 10.1127 14.8694 10.242 14.6674 10.2364C14.4884 10.2308 14.3787 10.1014 14.3787 9.92712C14.373 9.61782 14.3499 9.30853 14.2691 9.01048C13.9285 7.78455 12.9644 7.03099 11.5385 6.87915C11.3653 6.86228 11.1921 6.85666 11.1113 6.66546C11.019 6.44614 11.1979 6.26056 11.4923 6.27743C12.9875 6.37303 14.5519 7.23344 14.9098 9.12295C14.9502 9.31978 15.0022 9.5166 14.9849 9.67406Z" fill="#378AD7"/>
<path d="M13.6228 9.38148C13.6343 9.56706 13.6343 9.76951 13.3919 9.792C13.1032 9.82012 13.0455 9.59518 13.0109 9.37586C12.9127 8.73478 12.6125 8.36924 12.0988 8.27927C11.9891 8.25677 11.8736 8.2624 11.7639 8.2399C11.5908 8.20054 11.4695 8.10494 11.4984 7.91374C11.5273 7.72816 11.66 7.6663 11.839 7.6663C12.8261 7.63818 13.5939 8.38049 13.6228 9.38148Z" fill="#378AD7"/>
</svg>
