<?xml version="1.0" encoding="utf-8"?><svg viewBox="0 0 75 66" xmlns="http://www.w3.org/2000/svg" xmlns:xlink="http://www.w3.org/1999/xlink"><style>:root>svg{display:none}:root>svg:target{display:block}</style><svg viewBox="0 0 46 47" id="close" xmlns="http://www.w3.org/2000/svg"><path d="M10.063 10.281L35.936 36.72m-25.873-.001L35.936 10.28"/></svg><svg viewBox="0 0 66 63" id="instagram" xmlns="http://www.w3.org/2000/svg"><path d="M32.624-.01c4.64.02 9.28-.047 13.914.22 5.825.334 10.947 2.09 14.6 6.765 2.483 3.177 3.47 6.86 3.64 10.745.399 9.047.425 18.1-.004 27.145-.305 6.427-2.791 11.78-8.832 15.13-2.865 1.59-6.028 2.25-9.29 2.38-9.424.372-18.851.41-28.27-.01-6.136-.273-11.404-2.367-14.971-7.485C1.34 51.912.475 48.545.318 45.034-.09 35.88-.119 26.72.323 17.57.608 11.694 2.788 6.65 8.057 3.235 11.233 1.175 14.84.425 18.6.208c4.67-.273 9.348-.192 14.025-.218zm-.084 5.683c-2.465 0-4.932-.024-7.396.006-2.502.03-5.002.064-7.5.262-6.614.527-10.988 4.611-11.373 11.001-.57 9.497-.57 19.008-.01 28.505.39 6.678 4.687 10.814 11.608 11.19 9.814.533 19.642.536 29.459-.004 6.752-.37 11.114-4.574 11.496-11.086a243.32 243.32 0 000-28.504c-.382-6.52-4.735-10.584-11.496-11.106-4.925-.38-9.859-.185-14.788-.264z"/><path d="M49.213 31.267c.03 8.885-7.431 16.096-16.662 16.1-9.227.006-16.698-7.202-16.678-16.09.02-8.863 7.4-15.995 16.61-16.046 9.215-.047 16.699 7.125 16.73 16.036zm-16.53-10.4c-5.966-.06-10.893 4.558-10.961 10.272-.07 5.757 4.697 10.509 10.628 10.594 6.016.085 10.968-4.555 11.019-10.323.048-5.753-4.744-10.483-10.686-10.543zm21.086-6.301c.009 2.108-1.729 3.772-3.922 3.759-2.14-.013-3.837-1.653-3.843-3.72-.01-2.114 1.721-3.776 3.914-3.763 2.131.013 3.842 1.668 3.85 3.724z"/></svg><svg viewBox="0 0 15 15" id="small-close" xmlns="http://www.w3.org/2000/svg"><path d="M1.594 1.594l11.812 11.812m-11.812 0L13.406 1.594"/></svg><svg viewBox="0 0 75 61" id="telegram" xmlns="http://www.w3.org/2000/svg"><path d="M74.722 4.71c-.418 3.011-1.3 6.334-2.042 9.702-3.085 14.072-6.216 28.122-9.324 42.194-.928 4.26-3.48 5.219-7.122 2.632-5.15-3.657-10.299-7.293-15.425-10.972-.766-.558-1.183-.491-1.856.156-2.528 2.453-5.15 4.795-7.724 7.203-.186.179-.371.38-.603.513-.72.468-1.578 1.093-2.32.691-.534-.29-.14-1.27-.093-1.94.325-4.505.673-9.01.974-13.537.047-.78.279-1.36.882-1.895 9.696-8.386 19.369-16.794 29.042-25.201.765-.67 1.507-1.338 2.273-2.03.185-.178.417-.401.301-.669-.116-.312-.44-.357-.788-.379-.858-.045-1.554.401-2.227.803-8.072 4.884-16.122 9.746-24.17 14.63-4.663 2.81-9.302 5.642-13.965 8.474-.603.38-1.136.469-1.879.246-5.265-1.606-10.554-3.167-15.82-4.75C1.608 30.2.1 29.821.007 28.371c-.115-1.516 1.323-2.185 2.552-2.676 5.22-2.007 10.462-3.947 15.704-5.887C35.126 13.564 51.989 7.319 68.83 1.075c.301-.111.58-.245.881-.334 3.085-1.07 5.15.424 5.01 3.97z"/></svg><svg viewBox="0 0 20 16" id="telegram-footer" xmlns="http://www.w3.org/2000/svg"><path d="M19.397 1.422c-.104.76-.323 1.597-.508 2.446-.768 3.549-1.547 7.092-2.32 10.64-.232 1.074-.866 1.316-1.773.664-1.281-.923-2.563-1.84-3.839-2.767-.19-.14-.294-.124-.462.04-.629.618-1.281 1.208-1.922 1.816-.046.045-.092.095-.15.13-.179.117-.393.275-.577.173-.133-.073-.035-.32-.023-.489.08-1.136.167-2.272.242-3.413a.636.636 0 01.22-.478 4374.93 4374.93 0 007.227-6.355c.19-.169.375-.337.566-.512.046-.045.104-.1.075-.168-.03-.08-.11-.09-.196-.096-.214-.011-.387.101-.555.202-2.009 1.232-4.012 2.458-6.015 3.69-1.16.708-2.315 1.422-3.475 2.136a.507.507 0 01-.468.062c-1.31-.405-2.626-.798-3.937-1.198-.306-.095-.681-.19-.704-.556-.029-.383.329-.551.635-.675 1.299-.506 2.603-.995 3.908-1.485C9.543 3.655 13.74 2.08 17.931.506c.075-.029.144-.062.22-.085.767-.27 1.28.107 1.246 1.001z"/></svg><svg viewBox="0 0 22 23" id="viber-footer" xmlns="http://www.w3.org/2000/svg"><path d="M10.95 19.577c-.225 0-.554.028-.883-.006-.364-.039-.612.062-.86.327-.595.64-1.23 1.248-1.842 1.878-.323.332-.681.529-1.149.337-.473-.197-.606-.584-.595-1.057.012-.4 0-.804 0-1.203 0-.478-.282-.906-.727-1.108-1.876-.85-3.273-2.193-3.874-4.179-.508-1.692-.594-3.47-.502-5.24.052-.962.185-1.918.352-2.869.185-1.051.67-1.945 1.363-2.744.964-1.102 2.095-2.002 3.567-2.317C8.011.924 10.257.794 12.52.918c1.068.056 2.124.197 3.187.343 1.264.175 2.326.72 3.273 1.519 1.004.843 1.853 1.827 2.176 3.11.433 1.709.583 3.452.485 5.212a24.716 24.716 0 01-.352 2.902c-.19 1.074-.681 1.985-1.397 2.795-.959 1.091-2.096 1.951-3.55 2.294-1.063.248-2.148.355-3.239.433-.675.04-1.357.085-2.153.051zm-4.52-.264c0 .545-.006 1.085 0 1.63 0 .136-.064.31.132.372.18.062.266-.085.37-.186 1.062-1.063 2.13-2.126 3.192-3.2a.626.626 0 01.502-.213c1.426.04 2.84-.085 4.255-.259 1.016-.13 1.951-.41 2.736-1.08.803-.686 1.524-1.428 1.761-2.497.525-2.373.49-4.746.064-7.13-.29-1.592-2.194-3.324-3.62-3.6a24.21 24.21 0 00-3.827-.415 26.57 26.57 0 00-5.132.331c-1.86.31-3.06 1.412-3.88 2.975a1.575 1.575 0 00-.144.4 17.343 17.343 0 00-.271 6.05c.086.658.127 1.339.421 1.94.664 1.345 1.715 2.3 3.163 2.807.214.073.29.157.29.37a33.628 33.628 0 00-.012 1.705z"/><path d="M9.444 8.02c-.024.338-.15.585-.405.771-.202.146-.421.281-.52.512-.074.168-.045.343.018.517.52 1.367 1.409 2.384 2.811 2.953.612.247.85.19 1.259-.327.433-.545.843-.624 1.437-.23.3.197.6.405.895.613.866.613.941 1.872.104 2.525-.006.005-.011.005-.017.01-.445.344-.9.479-1.478.248-1.83-.73-3.516-1.675-4.907-3.059-1.403-1.389-2.315-3.082-3.02-4.887-.109-.28-.045-.55.087-.804.185-.354.433-.635.734-.866.583-.444 1.431-.326 1.899.236a9.59 9.59 0 011.022 1.496c.052.096.063.214.08.293zm1.817-3.076c2.436.057 4.572 1.884 4.953 4.252.064.382.093.77.133 1.153.023.208-.029.405-.271.416-.266.017-.324-.192-.34-.405-.036-.484-.059-.973-.186-1.445-.49-1.845-2.072-3.15-4.012-3.313-.179-.017-.363-.04-.542-.056-.197-.022-.381-.09-.364-.31.017-.202.173-.297.387-.286.08-.006.161-.006.242-.006z"/><path d="M14.985 9.674c0 .107.006.174 0 .242-.012.197-.116.326-.318.32-.179-.005-.288-.135-.288-.309a3.757 3.757 0 00-.11-.917c-.34-1.225-1.305-1.979-2.73-2.13-.174-.018-.347-.023-.428-.215-.092-.219.087-.404.381-.388 1.495.096 3.06.956 3.418 2.846.04.197.092.394.075.551z"/><path d="M13.623 9.381c.011.186.011.389-.231.411-.289.028-.346-.197-.381-.416-.098-.641-.398-1.007-.912-1.097-.11-.022-.225-.017-.335-.04-.173-.038-.294-.134-.266-.325.03-.186.162-.248.341-.248.987-.028 1.755.714 1.784 1.715z"/></svg><svg viewBox="0 0 67 66" id="whatsapp" xmlns="http://www.w3.org/2000/svg"><path d="M67 31.8c0 17.486-14.724 31.662-32.891 31.662-5.767 0-11.185-1.43-15.9-3.94L0 65.136l5.937-16.988A30.634 30.634 0 011.217 31.8C1.217 14.312 15.943.136 34.11.136S67 14.312 67 31.8zM34.109 5.178c-15.25 0-27.653 11.942-27.653 26.62 0 5.825 1.957 11.22 5.267 15.607L8.27 57.293l10.626-3.277c4.367 2.782 9.597 4.404 15.215 4.404 15.247 0 27.653-11.94 27.653-26.62 0-14.678-12.406-26.621-27.654-26.621zm16.61 33.913c-.204-.323-.74-.518-1.546-.906-.807-.388-4.772-2.267-5.51-2.524-.738-.259-1.277-.389-1.814.388-.537.777-2.082 2.524-2.553 3.042-.471.519-.94.584-1.748.195-.805-.388-3.403-1.208-6.482-3.851-2.397-2.057-4.015-4.597-4.486-5.375-.47-.776-.049-1.195.354-1.582.363-.348.807-.906 1.21-1.36.404-.453.538-.776.805-1.294.27-.518.136-.97-.067-1.36-.2-.388-1.815-4.207-2.486-5.761-.672-1.553-1.343-1.294-1.814-1.294-.47 0-1.008-.065-1.545-.065-.538 0-1.412.194-2.15.97-.74.777-2.822 2.655-2.822 6.474 0 3.819 2.888 7.508 3.292 8.026.403.517 5.576 8.608 13.773 11.716 8.197 3.107 8.197 2.07 9.675 1.94 1.477-.13 4.769-1.877 5.444-3.688.67-1.815.67-3.368.47-3.691z"/></svg><svg viewBox="0 0 22 22" id="whatsapp-footer" xmlns="http://www.w3.org/2000/svg"><path d="M11.152 20.994a10.575 10.575 0 01-4.532-.979.73.73 0 00-.513-.04c-1.669.394-3.337.771-5.005 1.148-.503.113-.728-.096-.624-.596.19-.889.381-1.777.572-2.66.167-.77.329-1.54.49-2.311a.738.738 0 00-.069-.506C-.567 10.826.41 5.94 3.96 2.796 5.731 1.227 7.84.35 10.234.13c5.138-.46 9.993 2.79 11.32 7.778 1.554 5.831-2.233 11.702-8.26 12.883-.705.135-1.42.208-2.142.203zm-7.816-2.716c1.004-.231 1.945-.433 2.875-.67.329-.084.594-.045.889.107 1.91.979 3.925 1.3 6.038.782 4.555-1.12 7.233-5.337 6.211-9.813-.894-3.931-4.739-6.8-9.19-6.287-2.47.286-4.456 1.456-5.894 3.441C3.012 7.565 2.556 9.5 2.816 11.602c.139 1.103.525 2.12 1.068 3.088a.74.74 0 01.092.562c-.057.247-.11.49-.161.737l-.48 2.289z"/><path d="M13.98 15.635c-1.177-.028-2.25-.399-3.232-1.006-1.819-1.13-3.383-2.514-4.416-4.392-.456-.838-.716-1.732-.526-2.688.173-.86.756-1.457 1.455-1.946.352-.248.843-.096 1.033.292.33.67.63 1.35.93 2.036.104.242.052.472-.104.686-.133.18-.271.349-.404.529-.272.36-.283.658-.03 1.023.336.473.746.883 1.179 1.271.629.562 1.275 1.114 2.026 1.524.56.304.837.264 1.287-.174.127-.124.254-.253.387-.371a.739.739 0 01.722-.18c.68.185 1.356.37 2.031.568.584.168.797.702.462 1.192-.479.703-1.016 1.35-1.928 1.546a3.785 3.785 0 01-.871.09z"/></svg></svg>