<?xml version="1.0" encoding="utf-8"?><svg viewBox="0 0 75 66" xmlns="http://www.w3.org/2000/svg" xmlns:xlink="http://www.w3.org/1999/xlink"><style>:root>svg{display:none}:root>svg:target{display:block}</style><svg viewBox="0 0 46 47" id="close" xmlns="http://www.w3.org/2000/svg"><path d="M10.063 10.281L35.936 36.72m-25.873-.001L35.936 10.28"/></svg><svg viewBox="0 0 66 63" id="instagram" xmlns="http://www.w3.org/2000/svg"><path d="M32.624-.01c4.64.02 9.28-.047 13.914.22 5.825.334 10.947 2.09 14.6 6.765 2.483 3.177 3.47 6.86 3.64 10.745.399 9.047.425 18.1-.004 27.145-.305 6.427-2.791 11.78-8.832 15.13-2.865 1.59-6.028 2.25-9.29 2.38-9.424.372-18.851.41-28.27-.01-6.136-.273-11.404-2.367-14.971-7.485C1.34 51.912.475 48.545.318 45.034-.09 35.88-.119 26.72.323 17.57.608 11.694 2.788 6.65 8.057 3.235 11.233 1.175 14.84.425 18.6.208c4.67-.273 9.348-.192 14.025-.218zm-.084 5.683c-2.465 0-4.932-.024-7.396.006-2.502.03-5.002.064-7.5.262-6.614.527-10.988 4.611-11.373 11.001-.57 9.497-.57 19.008-.01 28.505.39 6.678 4.687 10.814 11.608 11.19 9.814.533 19.642.536 29.459-.004 6.752-.37 11.114-4.574 11.496-11.086a243.32 243.32 0 000-28.504c-.382-6.52-4.735-10.584-11.496-11.106-4.925-.38-9.859-.185-14.788-.264z"/><path d="M49.213 31.267c.03 8.885-7.431 16.096-16.662 16.1-9.227.006-16.698-7.202-16.678-16.09.02-8.863 7.4-15.995 16.61-16.046 9.215-.047 16.699 7.125 16.73 16.036zm-16.53-10.4c-5.966-.06-10.893 4.558-10.961 10.272-.07 5.757 4.697 10.509 10.628 10.594 6.016.085 10.968-4.555 11.019-10.323.048-5.753-4.744-10.483-10.686-10.543zm21.086-6.301c.009 2.108-1.729 3.772-3.922 3.759-2.14-.013-3.837-1.653-3.843-3.72-.01-2.114 1.721-3.776 3.914-3.763 2.131.013 3.842 1.668 3.85 3.724z"/></svg><svg viewBox="0 0 15 15" id="small-close" xmlns="http://www.w3.org/2000/svg"><path d="M1.594 1.594l11.812 11.812m-11.812 0L13.406 1.594"/></svg><svg viewBox="0 0 75 61" id="telegram" xmlns="http://www.w3.org/2000/svg"><path d="M74.722 4.71c-.418 3.011-1.3 6.334-2.042 9.702-3.085 14.072-6.216 28.122-9.324 42.194-.928 4.26-3.48 5.219-7.122 2.632-5.15-3.657-10.299-7.293-15.425-10.972-.766-.558-1.183-.491-1.856.156-2.528 2.453-5.15 4.795-7.724 7.203-.186.179-.371.38-.603.513-.72.468-1.578 1.093-2.32.691-.534-.29-.14-1.27-.093-1.94.325-4.505.673-9.01.974-13.537.047-.78.279-1.36.882-1.895 9.696-8.386 19.369-16.794 29.042-25.201.765-.67 1.507-1.338 2.273-2.03.185-.178.417-.401.301-.669-.116-.312-.44-.357-.788-.379-.858-.045-1.554.401-2.227.803-8.072 4.884-16.122 9.746-24.17 14.63-4.663 2.81-9.302 5.642-13.965 8.474-.603.38-1.136.469-1.879.246-5.265-1.606-10.554-3.167-15.82-4.75C1.608 30.2.1 29.821.007 28.371c-.115-1.516 1.323-2.185 2.552-2.676 5.22-2.007 10.462-3.947 15.704-5.887C35.126 13.564 51.989 7.319 68.83 1.075c.301-.111.58-.245.881-.334 3.085-1.07 5.15.424 5.01 3.97z"/></svg><svg viewBox="0 0 67 66" id="whatsapp" xmlns="http://www.w3.org/2000/svg"><path d="M67 31.8c0 17.486-14.724 31.662-32.891 31.662-5.767 0-11.185-1.43-15.9-3.94L0 65.136l5.937-16.988A30.634 30.634 0 011.217 31.8C1.217 14.312 15.943.136 34.11.136S67 14.312 67 31.8zM34.109 5.178c-15.25 0-27.653 11.942-27.653 26.62 0 5.825 1.957 11.22 5.267 15.607L8.27 57.293l10.626-3.277c4.367 2.782 9.597 4.404 15.215 4.404 15.247 0 27.653-11.94 27.653-26.62 0-14.678-12.406-26.621-27.654-26.621zm16.61 33.913c-.204-.323-.74-.518-1.546-.906-.807-.388-4.772-2.267-5.51-2.524-.738-.259-1.277-.389-1.814.388-.537.777-2.082 2.524-2.553 3.042-.471.519-.94.584-1.748.195-.805-.388-3.403-1.208-6.482-3.851-2.397-2.057-4.015-4.597-4.486-5.375-.47-.776-.049-1.195.354-1.582.363-.348.807-.906 1.21-1.36.404-.453.538-.776.805-1.294.27-.518.136-.97-.067-1.36-.2-.388-1.815-4.207-2.486-5.761-.672-1.553-1.343-1.294-1.814-1.294-.47 0-1.008-.065-1.545-.065-.538 0-1.412.194-2.15.97-.74.777-2.822 2.655-2.822 6.474 0 3.819 2.888 7.508 3.292 8.026.403.517 5.576 8.608 13.773 11.716 8.197 3.107 8.197 2.07 9.675 1.94 1.477-.13 4.769-1.877 5.444-3.688.67-1.815.67-3.368.47-3.691z"/></svg></svg>